#!OML:ASF E:\Mandelcareful walks\Project 1\Capture day 1\Session 1\Subject1.ASF
:FULLY-SPECIFIED
:DEGREES
434
root 5.05744 16.6043 -0.705981 470.109 84.168 467.21
lowerback 12.6278 0.988993 -11.0393
upperback 8.36991 0.737063 -1.43208
thorax 1.78483 0.183759 4.61173
lowerneck -19.0107 4.0691 2.80798
upperneck 34.4701 7.23814 -2.84872
head 15.5433 3.30173 -0.255271
rclavicle 6.95746e-015 2.0276e-014
rhumerus -29.3366 -6.26295 -79.9569
rradius 32.2832
rwrist -14.0782
rhand -9.0853 -28.103
rfingers 7.12502
rthumb 16.8643 -57.3907
lclavicle 6.95746e-015 2.0276e-014
lhumerus -25.0659 2.80038 85.0781
lradius 25.5988
lwrist 10.8362
lhand -23.7361 -10.5316
lfingers 7.12502
lthumb 2.73225 19.4306
rfemur -31.8675 0.917866 3.49706
rtibia 21.6042
rfoot -1.31508 -21.3144
rtoes -0.0238456
lfemur 0.577098 3.01187 -25.4327
ltibia 23.1873
lfoot -24.5181 7.57967
ltoes 5.10638
435
root 5.246 16.574 -0.646712 470.141 83.7721 467.258
lowerback 12.6808 0.963544 -10.9993
upperback 8.46794 0.717983 -1.43744
thorax 1.86569 0.172719 4.58586
lowerneck -19.5453 4.23419 2.8159
upperneck 34.4825 7.53954 -3.06799
head 15.7007 3.38017 -0.27757
rclavicle 4.96962e-015 2.72335e-014
rhumerus -29.3384 -6.15561 -79.8387
rradius 32.4977
rwrist -14.2149
rhand -8.98779 -28.1281
rfingers 7.12502
rthumb 16.9582 -57.4078
lclavicle 4.96962e-015 2.72335e-014
lhumerus -24.9888 2.80476 85.4617
lradius 25.7094
lwrist 10.9958
lhand -23.7218 -11.1684
lfingers 7.12502
lthumb 2.746 18.7937
rfemur -32.2489 -0.760525 3.77021
rtibia 21.959
rfoot 0.870964 -20.3541
rtoes -1.26727
lfemur 2.04965 2.55059 -25.6439
ltibia 21.8086
lfoot -24.5949 7.88604
ltoes 5.25909
436
root 5.43628 16.5529 -0.584344 470.518 83.3781 467.657
lowerback 12.6942 0.943346 -10.8877
upperback 8.38076 0.688757 -1.48283
thorax 1.76587 0.169928 4.47848
lowerneck -19.1637 4.413 3.26899
upperneck 34.2133 7.83403 -3.60309
head 15.5499 3.49935 -0.534942
rclavicle 3.08116e-015 -1.74931e-014
rhumerus -29.7455 -6.28605 -79.7066
rradius 32.5944
rwrist -14.1815
rhand -9.12476 -27.6245
rfingers 7.12502
rthumb 16.8263 -56.9155
lclavicle 3.08116e-015 -1.74931e-014
lhumerus -25.3382 2.66967 85.7584
lradius 25.7802
lwrist 11.3471
lhand -23.7562 -11.8645
lfingers 7.12502
lthumb 2.71279 18.098
rfemur -32.3734 -2.39402 4.07711
rtibia 22.6695
rfoot 2.15394 -19.1118
rtoes -1.2638
lfemur 3.53029 2.16137 -25.8198
ltibia 20.3892
lfoot -24.4635 8.29027
ltoes 4.37716
437
root 5.62537 16.5209 -0.513606 472.221 82.8196 469.294
lowerback 12.8269 0.861787 -10.8526
upperback 8.27612 0.555984 -1.51048
thorax 1.60095 0.116386 4.44357
lowerneck -18.9898 4.57644 3.59461
upperneck 33.9995 8.12396 -4.07481
head 15.4684 3.60297 -0.737895
rclavicle 3.08116e-015 -8.74653e-015
rhumerus -29.9533 -6.59559 -79.5335
rradius 32.5655
rwrist -14.0432
rhand -9.26253 -27.363
rfingers 7.12502
rthumb 16.6937 -56.6652
lclavicle 3.08116e-015 -8.74653e-015
lhumerus -25.5743 2.72357 86.0315
lradius 25.6877
lwrist 11.458
lhand -23.8068 -12.3268
lfingers 7.12502
lthumb 2.66391 17.6363
rfemur -32.6358 -4.24379 4.33162
rtibia 23.804
rfoot 3.44422 -17.7476
rtoes 0.273542
lfemur 4.87472 1.66154 -26.0538
ltibia 19.0175
lfoot -24.2644 8.69147
ltoes 3.19754
438
root 5.84205 16.4797 -0.446473 470.76 82.5846 467.96
lowerback 12.8315 0.87763 -10.6049
upperback 8.3451 0.609304 -1.47909
thorax 1.65919 0.147888 4.33294
lowerneck -19.1605 4.7089 3.5974
upperneck 33.9685 8.39791 -4.30387
head 15.5242 3.68084 -0.776875
rclavicle 5.66536e-015 7.55382e-015
rhumerus -30.0227 -6.80644 -79.3286
rradius 32.6196
rwrist -13.9871
rhand -9.12335 -28.0564
rfingers 7.12502
rthumb 16.8277 -57.3473
lclavicle 5.66536e-015 7.55382e-015
lhumerus -25.7752 2.92595 86.3713
lradius 25.6636
lwrist 11.3657
lhand -23.8157 -12.5528
lfingers 7.12502
lthumb 2.65535 17.4104
rfemur -32.9083 -6.19531 5.02534
rtibia 25.3949
rfoot 4.94242 -14.7985
rtoes 3.43436
lfemur 6.58534 1.33988 -26.1709
ltibia 17.6589
lfoot -24.2272 9.31735
ltoes 1.54952
439
root 6.05767 16.4424 -0.367592 471.955 82.3014 469.195
lowerback 12.8816 0.798451 -10.2302
upperback 8.3468 0.535297 -1.42807
thorax 1.63618 0.124684 4.1864
lowerneck -19.2715 4.80822 3.63338
upperneck 34.0006 8.61997 -4.51544
head 15.5951 3.74657 -0.824976
rclavicle 1.14301e-015 -4.42296e-015
rhumerus -30.2207 -7.02829 -79.1409
rradius 32.7241
rwrist -14.0147
rhand -9.08079 -28.2852
rfingers 7.12502
rthumb 16.8687 -57.5726
lclavicle 1.14301e-015 -4.42296e-015
lhumerus -26.1474 2.7058 86.7475
lradius 25.818
lwrist 11.4661
lhand -23.7863 -12.4664
lfingers 7.12502
lthumb 2.68374 17.4965
rfemur -33.1694 -8.10801 5.74209
rtibia 27.202
rfoot 5.44663 -10.9226
rtoes 8.04466
lfemur 8.05097 0.993868 -26.1033
ltibia 16.5289
lfoot -24.0228 9.7052
ltoes -1.23206
440
root 6.27958 16.4093 -0.276704 474.675 81.9576 471.887
lowerback 12.8708 0.655385 -9.75683
upperback 8.3216 0.391394 -1.40815
thorax 1.62383 0.0707481 3.96
lowerneck -19.2717 4.91595 3.68144
upperneck 33.9731 8.81822 -4.65187
head 15.6061 3.81815 -0.85118
rclavicle -1.02001e-014 -2.66371e-014
rhumerus -30.3303 -7.44709 -79.0019
rradius 32.5923
rwrist -13.9027
rhand -9.03301 -27.9465
rfingers 7.12502
rthumb 16.9147 -57.2299
lclavicle -1.02001e-014 -2.66371e-014
lhumerus -26.5129 2.09908 87.0727
lradius 25.8524
lwrist 11.7864
lhand -23.7917 -12.4497
lfingers 7.12502
lthumb 2.67856 17.5132
rfemur -33.2796 -9.57597 6.29891
rtibia 29.0661
rfoot 3.18484 -8.24136
rtoes 6.20486
lfemur 9.34418 0.540538 -25.9109
ltibia 15.5592
lfoot -23.7409 9.93591
ltoes -3.7182
441
root 6.50658 16.3797 -0.17401 478.598 81.6888 475.776
lowerback 12.7901 0.467805 -9.22085
upperback 8.30457 0.200799 -1.28082
thorax 1.66098 -0.0107595 3.81694
lowerneck -19.0627 5.05003 3.72428
upperneck 33.7687 9.0543 -4.82631
head 15.4884 3.90717 -0.891245
rclavicle -1.03368e-014 -7.85199e-015
rhumerus -30.4286 -7.87386 -78.829
rradius 32.4504
rwrist -13.7567
rhand -8.90649 -27.9853
rfingers 7.12502
rthumb 17.0365 -57.2583
lclavicle -1.03368e-014 -7.85199e-015
lhumerus -26.8229 1.53 87.4233
lradius 25.8152
lwrist 12.0242
lhand -23.6565 -12.1576
lfingers 7.12502
lthumb 2.80913 17.8037
rfemur -33.2103 -10.3682 6.75833
rtibia 30.8907
rfoot 0.851428 -7.27461
rtoes 7.9416
lfemur 10.5678 -0.0796325 -25.446
ltibia 14.7231
lfoot -23.482 9.9781
ltoes -4.92599
442
root 6.73626 16.3502 -0.071014 480.63 81.655 477.821
lowerback 12.7322 0.429038 -8.58957
upperback 8.33418 0.217067 -1.14734
thorax 1.7059 0.0141629 3.60325
lowerneck -18.9185 5.19374 4.08131
upperneck 33.592 9.26652 -5.19663
head 15.4319 3.99718 -1.06926
rclavicle -1.5704e-014 -3.95581e-014
rhumerus -30.4782 -8.39625 -78.6773
rradius 32.3836
rwrist -13.6351
rhand -8.87854 -28.4222
rfingers 7.12502
rthumb 17.0634 -57.6928
lclavicle -1.5704e-014 -3.95581e-014
lhumerus -27.0795 0.682828 87.8174
lradius 25.8653
lwrist 12.277
lhand -23.3236 -11.9409
lfingers 7.12502
lthumb 3.1306 18.0159
rfemur -33.2457 -10.7966 7.30777
rtibia 32.5882
rfoot -0.988081 -6.6458
rtoes 9.10309
lfemur 11.7253 -0.512761 -24.8957
ltibia 14.1809
lfoot -23.2814 10.0473
ltoes -5.76882
443
root 6.97714 16.329 0.0353534 482.853 81.6422 480.079
lowerback 12.6184 0.324134 -7.95292
upperback 8.37608 0.15146 -0.98697
thorax 1.80472 -0.00436059 3.42317
lowerneck -18.8227 5.41333 4.45657
upperneck 33.609 9.60476 -5.5279
head 15.4889 4.14556 -1.20734
rclavicle 2.70347e-014 1.80894e-014
rhumerus -30.2799 -8.65761 -78.6188
rradius 32.0781
rwrist -13.5871
rhand -8.94412 -28.5992
rfingers 7.12502
rthumb 17.0002 -57.8753
lclavicle 2.70347e-014 1.80894e-014
lhumerus -27.414 0.00941556 88.1619
lradius 25.7635
lwrist 12.3074
lhand -23.1046 -12.6612
lfingers 7.12502
lthumb 3.34208 17.2923
rfemur -33.1782 -11.1868 7.93986
rtibia 34.111
rfoot -2.66951 -6.25782
rtoes 8.7693
lfemur 12.6152 -0.932269 -24.2609
ltibia 14.2309
lfoot -23.124 10.0222
ltoes -6.40041
444
root 7.2185 16.3152 0.148139 484.287 81.8507 481.471
lowerback 12.4459 0.236065 -7.32423
upperback 8.35316 0.0982671 -0.763528
thorax 1.86412 -0.0186532 3.31148
lowerneck -18.6481 5.72461 4.81045
upperneck 33.6753 10.1223 -5.8956
head 15.5707 4.36434 -1.32354
rclavicle -1.44119e-014 5.96354e-016
rhumerus -30.044 -8.56134 -78.5938
rradius 31.6879
rwrist -13.614
rhand -8.96787 -28.1076
rfingers 7.12502
rthumb 16.9774 -57.3857
lclavicle -1.44119e-014 5.96354e-016
lhumerus -27.8307 -0.269114 88.4409
lradius 25.567
lwrist 11.8874
lhand -22.98 -12.6881
lfingers 7.12502
lthumb 3.46238 17.2636
rfemur -33.095 -11.18 8.74226
rtibia 35.4833
rfoot -4.31748 -6.01469
rtoes 8.45616
lfemur 13.0362 -1.0913 -23.4169
ltibia 15.0814
lfoot -23.0952 9.81885
ltoes -6.79292
445
root 7.45347 16.3051 0.268609 486.111 82.2453 483.246
lowerback 12.3216 0.145443 -6.68221
upperback 8.27395 0.0292345 -0.461632
thorax 1.83948 -0.0401684 3.27518
lowerneck -18.2651 6.12852 5.41278
upperneck 33.6525 10.8106 -6.55278
head 15.6233 4.65612 -1.57504
rclavicle -1.61016e-014 -1.59028e-014
rhumerus -30.0527 -8.13612 -78.5804
rradius 31.5301
rwrist -13.5846
rhand -9.08776 -27.9618
rfingers 7.12502
rthumb 16.862 -57.2497
lclavicle -1.61016e-014 -1.59028e-014
lhumerus -28.3207 -0.39354 88.6739
lradius 25.466
lwrist 11.3784
lhand -22.8669 -11.8606
lfingers 7.12502
lthumb 3.57168 18.0892
rfemur -32.8846 -10.8144 9.67226
rtibia 36.7144
rfoot -6.00063 -5.83876
rtoes 8.38964
lfemur 12.9391 -1.04689 -22.2696
ltibia 16.8703
lfoot -22.8936 9.43611
ltoes -7.96095
446
root 7.68343 16.2973 0.392476 488.096 82.5149 485.219
lowerback 12.3069 0.025156 -6.09343
upperback 8.15402 -0.0925514 -0.244824
thorax 1.71937 -0.0837707 3.18429
lowerneck -17.9018 6.5501 5.96471
upperneck 33.8322 11.5001 -6.97643
head 15.7669 4.97317 -1.71924
rclavicle -3.97569e-015 3.97569e-015
rhumerus -30.1229 -7.58046 -78.7035
rradius 31.4537
rwrist -13.5246
rhand -9.41485 -28.4455
rfingers 7.12502
rthumb 16.5471 -57.76
lclavicle -3.97569e-015 3.97569e-015
lhumerus -28.9098 -0.567395 88.7955
lradius 25.3942
lwrist 11.0834
lhand -22.7773 -12.024
lfingers 7.12502
lthumb 3.65817 17.9244
rfemur -32.4979 -10.5113 10.4526
rtibia 37.7348
rfoot -7.66752 -5.66748
rtoes 8.29867
lfemur 12.2432 -0.876954 -21.1324
ltibia 19.6784
lfoot -22.3568 8.91983
ltoes -9.99445
447
root 7.91205 16.2986 0.512876 489.997 82.5406 487.126
lowerback 12.3436 -0.165867 -5.51029
upperback 8.0753 -0.30137 -0.186648
thorax 1.62245 -0.166215 2.93951
lowerneck -17.7357 7.00409 6.31862
upperneck 34.1309 12.1746 -7.03378
head 15.9734 5.29614 -1.67134
rclavicle 1.53064e-014 7.95139e-016
rhumerus -29.7277 -7.38963 -78.9385
rradius 31.0894
rwrist -13.2231
rhand -9.5226 -28.816
rfingers 7.12502
rthumb 16.4433 -58.1391
lclavicle 1.53064e-014 7.95139e-016
lhumerus -29.325 -0.654583 88.7569
lradius 25.2029
lwrist 10.9583
lhand -22.7019 -12.5862
lfingers 7.12502
lthumb 3.73098 17.3609
rfemur -31.9654 -10.5641 11.0223
rtibia 38.4979
rfoot -9.10887 -5.43699
rtoes 8.47159
lfemur 11.0633 -0.591582 -20.144
ltibia 23.2949
lfoot -21.4506 8.17228
ltoes -12.1667
448
root 8.1345 16.3146 0.631081 492.653 82.4705 489.813
lowerback 12.4046 -0.410196 -4.85841
upperback 8.04882 -0.566624 -0.167593
thorax 1.56809 -0.273633 2.62147
lowerneck -17.4985 7.50319 6.78839
upperneck 34.2156 12.8937 -7.22127
head 16.0908 5.63658 -1.68887
rclavicle -1.59028e-015 -1.35174e-014
rhumerus -29.1833 -7.64622 -79.13
rradius 30.6421
rwrist -12.7734
rhand -9.4218 -28.9256
rfingers 7.12502
rthumb 16.5404 -58.2407
lclavicle -1.59028e-015 -1.35174e-014
lhumerus -29.3902 -0.594436 88.6047
lradius 24.673
lwrist 10.7106
lhand -22.7432 -12.6955
lfingers 7.12502
lthumb 3.69105 17.2523
rfemur -31.2779 -10.8589 11.6029
rtibia 38.9968
rfoot -10.2368 -5.2465
rtoes 9.14451
lfemur 9.50947 -0.265736 -19.1074
ltibia 27.4336
lfoot -20.0702 7.29106
ltoes -13.5797
